<svg width="22" height="21" viewBox="0 0 22 21" fill="none" xmlns="http://www.w3.org/2000/svg">
<path d="M19.9364 19.7961C19.9526 19.7995 20.0089 19.8112 20.0649 19.8112C20.4367 19.8112 20.7396 19.4609 20.6393 19.0708L19.56 15.0457L19.5595 15.0437C19.523 14.9108 19.5392 14.7574 19.6099 14.6161C20.5884 12.6545 20.9124 10.314 20.313 7.88008C19.4956 4.57366 16.9158 1.91924 13.6159 1.04142L13.614 1.04093C12.7201 0.808341 11.8371 0.693604 10.9789 0.693604C4.82078 0.693604 0.0130969 6.47211 1.6723 12.8935C2.06406 14.4046 3.05701 15.9164 4.30669 17.1349C5.55638 18.3534 7.09419 19.3093 8.60977 19.6773C9.41524 19.8741 10.2081 19.9659 10.9789 19.9659C12.6364 19.9659 14.1878 19.5387 15.5492 18.8053L15.5509 18.8044C15.6488 18.7509 15.7542 18.7241 15.8489 18.7241C15.9018 18.7241 15.9487 18.7299 15.9924 18.7421L19.9221 19.7932L19.9332 19.7955M19.9364 19.7961C19.9351 19.7958 19.934 19.7956 19.9332 19.7955M19.9364 19.7961L19.9332 19.7955M16.3289 17.5104C16.3291 17.5105 16.3286 17.5104 16.3289 17.5104ZM16.3289 17.5104C16.1707 17.4691 16.0104 17.4469 15.8489 17.4469C15.539 17.4469 15.2212 17.5284 14.9351 17.6827C13.7036 18.3469 12.3729 18.6843 10.9789 18.6843C10.2904 18.6843 9.59501 18.5965 8.91116 18.4313C7.61433 18.1159 6.28025 17.2721 5.19699 16.2144C4.11404 15.157 3.24447 13.8499 2.9141 12.5709C2.24248 9.96722 2.77037 7.28554 4.36928 5.2199C5.96565 3.15754 8.37632 1.97518 10.9789 1.97518C11.7437 1.97518 12.5215 2.0765 13.2894 2.28336C16.1425 3.04197 18.3553 5.30722 19.0711 8.18904C19.5723 10.212 19.3664 12.2392 18.4653 14.046C18.2553 14.4659 18.2046 14.9382 18.3226 15.3769L19.0918 18.2476L16.3289 17.5104ZM2.36118 12.7154C0.82094 6.75419 5.27594 1.40513 10.9789 1.40513C11.7732 1.40513 12.5957 1.51127 13.4338 1.72927C16.4796 2.53983 18.8665 4.99387 19.6223 8.05084C20.1806 10.3187 19.8773 12.4859 18.9733 14.2982C18.832 14.5808 18.7862 14.9134 18.873 15.2309C18.8731 15.2313 18.8732 15.2317 18.8733 15.232L19.897 19.05L16.1828 18.0565C16.1822 18.0563 16.1816 18.0561 16.181 18.056C16.0662 18.0243 15.9546 18.0126 15.8489 18.0126C15.6258 18.0126 15.4044 18.0739 15.2109 18.1793C13.9476 18.8597 12.5118 19.2544 10.9789 19.2544C10.2649 19.2544 9.52875 19.1694 8.77865 18.9861C7.41748 18.6557 5.98747 17.7799 4.80341 16.6254C3.61925 15.4708 2.7119 14.068 2.36118 12.7154ZM4.93195 5.65542C6.39369 3.76699 8.59669 2.68671 10.9789 2.68671C11.6812 2.68671 12.3969 2.77978 13.1048 2.97054L13.106 2.97086C15.7059 3.66191 17.7265 5.72739 18.3806 8.36057C18.8427 10.2264 18.651 12.0793 17.8287 13.7281C17.5438 14.2981 17.4706 14.9486 17.6354 15.5617L18.0859 17.2428L16.5107 16.8225L16.5092 16.8221C16.2964 16.7664 16.0761 16.7354 15.8489 16.7354C15.4165 16.7354 14.983 16.8484 14.5973 17.0564C13.469 17.665 12.2542 17.9728 10.9789 17.9728C10.3507 17.9728 9.71157 17.8927 9.0786 17.7398C7.94049 17.4629 6.7154 16.7025 5.69406 15.7053C4.67235 14.7077 3.89134 13.5091 3.60302 12.3929C2.98426 9.99406 3.47277 7.54054 4.93195 5.65542Z" stroke="#333333"/>
<circle cx="8" cy="10" r="1" fill="#333333"/>
<circle cx="11" cy="10" r="1" fill="#333333"/>
<circle cx="14" cy="10" r="1" fill="#333333"/>
</svg>
