<svg width="24" height="24" viewBox="0 0 24 24" fill="none" xmlns="http://www.w3.org/2000/svg">
<path fill-rule="evenodd" clip-rule="evenodd" d="M21.2945 21.1593L20.2163 17.1378C20.1544 16.9124 20.1853 16.6694 20.2914 16.4573C21.2327 14.5702 21.5464 12.3164 20.9675 9.96541C20.1809 6.78356 17.6973 4.22925 14.5243 3.38518C13.6581 3.1598 12.8052 3.04932 11.9788 3.04932C6.04821 3.04932 1.41686 8.61312 3.01662 14.8045C3.75905 17.6681 6.81716 20.6334 9.69408 21.3317C10.4719 21.5217 11.2364 21.6101 11.9788 21.6101C13.5742 21.6101 15.0679 21.1991 16.3804 20.492C16.5262 20.4125 16.6897 20.3683 16.8488 20.3683C16.9283 20.3683 17.0079 20.3771 17.0874 20.3992L21.0029 21.4466C21.025 21.451 21.0471 21.4554 21.0647 21.4554C21.215 21.4554 21.3343 21.314 21.2945 21.1593ZM18.9789 17.4693L19.5887 19.7452L17.4189 19.1662C17.2333 19.1176 17.0432 19.0911 16.8488 19.0911C16.4776 19.0911 16.102 19.1883 15.7661 19.3695C14.5862 20.0059 13.3134 20.3285 11.9788 20.3285C11.3204 20.3285 10.653 20.2445 9.99458 20.0854C7.55959 19.4933 4.87712 16.8771 4.25843 14.4819C3.61322 11.9806 4.12143 9.413 5.65048 7.43761C7.17954 5.46221 9.48637 4.33089 11.9788 4.33089C12.7124 4.33089 13.4593 4.42812 14.1973 4.62698C16.9239 5.35173 19.0407 7.51716 19.7257 10.2748C20.2074 12.2192 20.0086 14.1593 19.1468 15.8872C18.8993 16.3821 18.8375 16.9434 18.9789 17.4693Z" fill="#333333"/>
<path d="M20.9364 21.7961C20.9526 21.7995 21.0089 21.8112 21.0649 21.8112C21.4367 21.8112 21.7396 21.4609 21.6393 21.0708L20.56 17.0457L20.5595 17.0437C20.523 16.9108 20.5392 16.7574 20.6099 16.6161C21.5884 14.6545 21.9124 12.314 21.313 9.88008C20.4956 6.57366 17.9158 3.91924 14.6159 3.04142L14.614 3.04093C13.7201 2.80834 12.8371 2.6936 11.9789 2.6936C5.82078 2.6936 1.0131 8.47211 2.6723 14.8935C3.06406 16.4046 4.05701 17.9164 5.30669 19.1349C6.55638 20.3534 8.09419 21.3093 9.60977 21.6773C10.4152 21.8741 11.2081 21.9659 11.9789 21.9659C13.6364 21.9659 15.1878 21.5387 16.5492 20.8053L16.5509 20.8044C16.6488 20.7509 16.7542 20.7241 16.8489 20.7241C16.9018 20.7241 16.9487 20.7299 16.9924 20.7421L20.9221 21.7932L20.9332 21.7955M20.9364 21.7961C20.9351 21.7958 20.934 21.7956 20.9332 21.7955M20.9364 21.7961L20.9332 21.7955M19.873 17.2309C19.7862 16.9134 19.832 16.5808 19.9733 16.2982C20.8773 14.4859 21.1806 12.3187 20.6223 10.0508C19.8665 6.99387 17.4796 4.53983 14.4338 3.72927C13.5957 3.51127 12.7732 3.40513 11.9789 3.40513C6.27594 3.40513 1.82094 8.75419 3.36118 14.7154C3.7119 16.068 4.61925 17.4708 5.80341 18.6254C6.98747 19.7799 8.41695 20.6556 9.77812 20.986L9.77864 20.9861C10.5287 21.1694 11.2649 21.2544 11.9789 21.2544C13.5118 21.2544 14.9476 20.8597 16.2109 20.1793C16.4044 20.0739 16.6258 20.0126 16.8489 20.0126C16.9546 20.0126 17.0662 20.0243 17.181 20.056M19.873 17.2309C19.8731 17.2313 19.8732 17.2317 19.8733 17.232M19.873 17.2309L19.8733 17.232M19.8733 17.232L20.897 21.05L17.1828 20.0565M17.1828 20.0565C17.1822 20.0563 17.1816 20.0561 17.181 20.056M17.1828 20.0565L17.181 20.056M5.93195 7.65542C7.39369 5.76699 9.59669 4.68671 11.9789 4.68671C12.6812 4.68671 13.3969 4.77978 14.1048 4.97054L14.106 4.97086C16.7059 5.66191 18.7265 7.72739 19.3806 10.3606C19.8427 12.2264 19.651 14.0793 18.8287 15.7281C18.5438 16.2981 18.4706 16.9486 18.6354 17.5617L19.0859 19.2428L17.5107 18.8225L17.5092 18.8221C17.2964 18.7664 17.0761 18.7354 16.8489 18.7354C16.4165 18.7354 15.983 18.8484 15.5973 19.0564C14.469 19.665 13.2542 19.9728 11.9789 19.9728C11.3507 19.9728 10.7116 19.8927 10.0786 19.7398C8.94049 19.4629 7.7154 18.7025 6.69406 17.7053C5.67235 16.7077 4.89134 15.5091 4.60302 14.3929C3.98426 11.9941 4.47277 9.54054 5.93195 7.65542ZM11.9789 3.97518C9.37632 3.97518 6.96565 5.15754 5.36928 7.2199C3.77037 9.28554 3.24248 11.9672 3.9141 14.5709C4.24447 15.8499 5.11404 17.157 6.19699 18.2144C7.28025 19.2721 8.61381 20.1158 9.91065 20.4312L9.91116 20.4313C10.595 20.5965 11.2904 20.6843 11.9789 20.6843C13.3729 20.6843 14.7036 20.3469 15.9351 19.6827C16.2212 19.5284 16.539 19.4469 16.8489 19.4469C17.0104 19.4469 17.1699 19.4689 17.3281 19.5102C17.3284 19.5103 17.3286 19.5104 17.3289 19.5104L20.0918 20.2476L19.3226 17.3769C19.2046 16.9382 19.2552 16.4663 19.4651 16.0463L19.4653 16.046C20.3664 14.2392 20.5723 12.212 20.0711 10.189C19.3553 7.30722 17.1425 5.04197 14.2894 4.28336C13.5215 4.0765 12.7437 3.97518 11.9789 3.97518Z" stroke="#333333"/>
</svg>
